<?xml version="1.0" encoding="utf-8"?>
<!-- Generator: Adobe Illustrator 25.2.3, SVG Export Plug-In . SVG Version: 6.00 Build 0)  -->
<svg version="1.1" xmlns="http://www.w3.org/2000/svg" xmlns:xlink="http://www.w3.org/1999/xlink" x="0px" y="0px"
	 viewBox="0 0 240 240" style="enable-background:new 0 0 240 240;" xml:space="preserve">
<style type="text/css">
	.st0{display:none;}
	.st1{display:inline;}
	.st2{display:inline;fill:#FAA21B;}
	.st3{fill:#FAA21B;}
	.st4{display:none;fill:#182D3D;}
	.st5{fill:#B2B2B2;}
	.st6{fill:none;stroke:#B2B2B2;stroke-width:6;stroke-miterlimit:10;}
	.st7{fill:#FFFFFF;stroke:#B2B2B2;stroke-width:6;stroke-miterlimit:10;}
	.st8{fill:#9EBECC;stroke:#15171A;stroke-width:3;stroke-miterlimit:10;}
</style>
<g id="Layer_1" class="st0">
	<g class="st1">
		<g class="st0">
			<path class="st2" d="M118.6,26.5c21.9,0,38.8,5.4,50.8,16.3c13.4,12.1,20.1,27.5,20.1,46.3c0,19.1-8.3,35.1-24.9,48.2l32.2,77.6
				h-58.7l-27.2-60.7v-48.4h4.4c11.7,0,17.5-5.1,17.5-15.3c0-9-6.7-13.4-20.2-13.4h-9.9V77v137.7H46.9V26.5H118.6 M118.6,18.5H46.9
				h-8v8v188.3v8h8h55.9h8v-8v-41.4l20.1,44.8l2.1,4.7h5.2h58.7h12l-4.6-11.1l-30-72.2c15.5-13.9,23.3-30.9,23.3-50.5
				c0-21-7.7-38.6-22.8-52.2C161.3,24.7,142.4,18.5,118.6,18.5L118.6,18.5z M110.7,85.2h1.9c6.7,0,9.6,1.3,10.8,2
				c0.6,0.4,1.5,1,1.5,3.4c0,2.7-0.5,4.5-1.6,5.4c-1.4,1.2-4.2,1.8-7.9,1.8H111h-0.2V85.2H110.7z"/>
		</g>
		<g>
			<path class="st3" d="M118.6,26.5c21.9,0,38.8,5.4,50.8,16.3c13.4,12.1,20.1,27.5,20.1,46.3c0,19.1-8.3,35.1-24.9,48.2l32.2,77.6
				h-58.7l-27.2-60.7l0.1-76.6h-8l-0.3,137.1H46.9V26.5H118.6 M118.6,18.5H46.9h-8v8v188.3v8h8h55.9h8v-8l0.1-41.3l20,44.6l2.1,4.7
				h5.2h58.7h12l-4.6-11.1l-30-72.2c15.5-13.9,23.3-30.9,23.3-50.5c0-21-7.7-38.6-22.8-52.2C161.3,24.7,142.4,18.5,118.6,18.5
				L118.6,18.5z"/>
		</g>
	</g>
</g>
<g id="Layer_2">
	<rect class="st4" width="240" height="240"/>
	<polygon class="st5" points="125,223.5 131.4,236.1 150.3,236.1 125,185.5 99.7,236.1 118.7,236.1 	"/>
	<path class="st6" d="M66.3,29.1c16.6,44.2,46.5,63.6,76.8,63.6c31.7,0,63.8-14.9,76.8-52"/>
	<path class="st6" d="M57.5,92.5c0,49.2,33.1,85.9,85.6,80.6c29.8-3,75.5-26.7,76.8-132.5"/>
	<line class="st7" x1="23.9" y1="53" x2="211.3" y2="36.4"/>
	<circle class="st8" cx="23.9" cy="53" r="14.1"/>
	<circle class="st8" cx="65.6" cy="19.9" r="11.8"/>
	<circle class="st8" cx="60.8" cy="106.8" r="22.8"/>
	<circle class="st8" cx="218.6" cy="36.4" r="14.5"/>
</g>
</svg>
